<?xml version="1.0" standalone="no"?>
<!DOCTYPE svg PUBLIC "-//W3C//DTD SVG 20010904//EN"
 "http://www.w3.org/TR/2001/REC-SVG-20010904/DTD/svg10.dtd">
<svg version="1.0" xmlns="http://www.w3.org/2000/svg"
 width="1280.000000pt" height="945.000000pt" viewBox="0 0 1280.000000 945.000000"
 preserveAspectRatio="xMidYMid meet">
<metadata>
Created by potrace 1.15, written by Peter Selinger 2001-2017
</metadata>
<g transform="translate(0.000000,945.000000) scale(0.100000,-0.100000)"
fill="#000000" stroke="none">
<path d="M10940 9435 c-254 -46 -488 -194 -636 -401 -58 -81 -127 -229 -154
-329 -30 -112 -37 -292 -16 -411 66 -380 338 -682 711 -790 111 -32 304 -43
422 -24 377 61 687 338 800 715 24 82 27 105 27 260 0 144 -3 182 -22 247
-140 506 -631 823 -1132 733z"/>
<path d="M1508 9425 c-557 -106 -915 -650 -788 -1200 67 -291 261 -532 535
-666 160 -78 229 -93 430 -93 201 0 270 15 430 93 279 137 476 386 540 686 21
96 24 292 6 380 -81 392 -356 686 -739 786 -102 27 -308 34 -414 14z"/>
<path d="M10840 7294 c-284 -55 -494 -213 -622 -469 -20 -38 -45 -101 -58
-140 -12 -38 -124 -578 -249 -1200 l-227 -1130 -220 -6 c-120 -4 -517 -7 -882
-8 -754 -1 -752 -1 -912 -78 -81 -39 -108 -58 -180 -132 -95 -95 -150 -188
-192 -321 l-23 -75 0 -1660 0 -1660 23 -68 c57 -163 181 -281 347 -328 79 -22
237 -17 315 10 166 57 282 182 337 361 16 50 18 164 20 1297 l4 1242 1147 3
1147 3 80 23 c99 28 227 88 297 140 71 52 185 176 226 245 94 156 85 119 380
1587 274 1362 274 1365 275 1495 0 194 -39 333 -138 486 -108 168 -290 297
-506 360 -57 16 -107 22 -219 24 -80 2 -156 1 -170 -1z"/>
<path d="M1630 7275 c-181 -38 -334 -119 -461 -245 -179 -178 -258 -388 -246
-655 5 -105 39 -288 271 -1445 146 -729 276 -1354 287 -1390 33 -100 105 -230
173 -310 111 -133 265 -231 441 -281 l80 -23 1153 -3 1152 -4 0 -1228 c0
-1191 1 -1230 20 -1305 11 -43 32 -101 47 -129 44 -81 135 -167 227 -213 79
-38 82 -39 211 -42 112 -3 139 -1 193 17 157 53 274 174 325 336 l22 70 0
1630 c0 1843 6 1702 -80 1873 -96 189 -223 301 -417 367 l-83 29 -914 7 c-502
4 -915 10 -917 12 -3 2 -105 508 -229 1125 -123 617 -233 1153 -245 1193 -28
92 -103 238 -163 316 -103 134 -257 236 -432 286 -91 26 -320 33 -415 12z"/>
<path d="M12289 6137 c-130 -37 -227 -141 -263 -282 -8 -33 -112 -537 -231
-1120 -239 -1171 -247 -1212 -282 -1305 -135 -360 -389 -586 -761 -677 -58
-14 -177 -17 -912 -22 -841 -6 -845 -6 -899 -28 -70 -29 -125 -67 -162 -114
-94 -119 -117 -291 -59 -444 31 -82 122 -172 205 -206 l60 -24 920 0 c917 0
920 0 1022 23 543 120 982 466 1234 972 107 214 118 259 390 1577 226 1097
250 1225 246 1288 -11 151 -87 264 -222 331 -62 31 -85 37 -157 40 -50 2 -101
-1 -129 -9z"/>
<path d="M276 6120 c-120 -38 -217 -130 -257 -245 -39 -112 -39 -111 226
-1400 284 -1380 297 -1430 448 -1687 263 -447 680 -752 1175 -861 94 -20 126
-21 987 -25 664 -2 904 0 945 8 149 33 256 136 294 285 62 237 -72 465 -302
514 -36 7 -295 11 -820 11 -454 0 -796 4 -837 10 -174 25 -352 93 -479 184
-135 96 -274 272 -348 441 -49 110 -76 232 -307 1365 -126 619 -239 1152 -252
1185 -17 45 -38 76 -89 126 -57 58 -75 70 -134 88 -84 26 -171 26 -250 1z"/>
</g>
</svg>
